# xmcd
#
# Track frame offsets:
#	150
#	25227
#	41335
#	65737
#	77460
#	94802
#	104962
#	114217
#	123660
#	146822
#	161617
#	186575
#	207527
#	237087
#	245895
#	265887
#	287122
#
# Disc length: 4157 seconds
#
# Revision: 2
# Processed by: cddbd v1.5.2PL0 Copyright (c) Steve Scherf et al.
# Submitted via: EasyCDDAExtractor 12.1.0.1
#
DISCID=07103b11
DTITLE=Various Artist - 부흥
DYEAR=1997
DGENRE=Blues
TTITLE0=박종호 - 나는 여호와니
TTITLE1=Various Artist - 주님의 영광
TTITLE2=하덕규 - 정결
TTITLE3=Various Artist - 영문 밖으로
TTITLE4=양진 - 하나님의 어린 양
TTITLE5=Various Artist - 온 세상 위한 십자가
TTITLE6=최인혁 - 모든 이름 위에 뛰어난 이름
TTITLE7=최인혁 - 주의 찬송 세계 끝까지
TTITLE8=이무하 - 땅 끝에서
TTITLE9=최덕신 - 고요한 아침의 나라
TTITLE10=Various Artist - 부흥
TTITLE11=송정미 - 주님 나라 임하시네
TTITLE12=Various Artist - 파송의 노래
TTITLE13=송은경 - 주 사모합니다
TTITLE14=조준모 - 나의 영이
TTITLE15=Various Artist - 비전
TTITLE16=Various Artist - 부흥 (연주곡)
EXTD=YEAR: 1997 ID3G:   0
EXTT0=
EXTT1=
EXTT2=
EXTT3=
EXTT4=
EXTT5=
EXTT6=
EXTT7=
EXTT8=
EXTT9=
EXTT10=
EXTT11=
EXTT12=
EXTT13=
EXTT14=
EXTT15=
EXTT16=
PLAYORDER=
